<?xml version="1.0" standalone="no"?>
<!DOCTYPE svg PUBLIC "-//W3C//DTD SVG 20010904//EN"
 "http://www.w3.org/TR/2001/REC-SVG-20010904/DTD/svg10.dtd">
<svg version="1.0" xmlns="http://www.w3.org/2000/svg"
 width="400.000000pt" height="400.000000pt" viewBox="0 0 400.000000 400.000000"
 preserveAspectRatio="xMidYMid meet">
<metadata>
Created by potrace 1.11, written by Peter Selinger 2001-2013
</metadata>
<g transform="translate(0.000000,400.000000) scale(0.100000,-0.100000)"
fill="#000000" stroke="none">
<path d="M2730 2995 l0 -115 255 0 256 0 -1 -622 c-1 -664 -5 -726 -52 -825
-61 -129 -232 -172 -473 -119 -63 13 -234 100 -278 139 -7 7 -25 23 -40 36
l-27 24 0 -161 0 -162 38 -16 c280 -120 617 -137 826 -40 145 67 219 181 263
408 4 18 8 378 10 801 l4 767 -391 0 -390 0 0 -115z"/>
<path d="M910 2508 c-123 -321 -229 -596 -236 -613 -6 -16 -29 -75 -49 -130
-21 -55 -44 -113 -51 -130 -7 -16 -38 -97 -69 -180 -32 -82 -64 -167 -72 -187
l-15 -38 -89 0 -89 0 0 -70 0 -70 282 2 283 3 2 67 2 68 -109 0 c-83 0 -108 3
-106 13 3 6 39 108 82 225 l79 212 422 0 422 0 6 -22 c3 -13 10 -32 14 -43 17
-42 41 -103 76 -200 20 -55 41 -109 45 -120 29 -68 33 -65 -89 -65 l-111 0 0
-70 0 -70 365 0 365 0 0 70 0 70 -98 0 -99 0 -92 243 c-51 133 -96 251 -101
262 -5 11 -123 315 -261 675 -138 360 -253 661 -256 668 -4 8 -37 12 -118 12
l-112 0 -223 -582z m325 112 c62 -162 113 -294 219 -569 48 -123 85 -225 83
-227 -2 -3 -166 -3 -364 -2 l-361 3 115 295 c62 162 144 373 181 467 36 95 69
169 73 165 3 -4 28 -63 54 -132z"/>
<path d="M2275 2691 c-47 -12 -101 -40 -123 -64 -57 -61 -65 -171 -18 -251 15
-25 23 -46 18 -46 -4 0 -34 -23 -65 -51 -194 -173 -138 -441 108 -517 46 -14
178 -12 238 4 48 12 108 41 158 76 14 10 24 4 58 -30 l42 -42 125 0 125 0 -3
28 c-3 26 -5 27 -74 30 l-70 3 -55 55 c-46 47 -52 57 -42 72 43 60 84 146 99
205 l16 67 53 0 c52 0 53 0 51 30 l-1 30 -146 0 -146 0 0 -30 c0 -30 1 -30 54
-30 l54 0 -7 -37 c-10 -57 -29 -106 -59 -154 l-28 -43 -71 75 c-320 339 -337
360 -343 423 -5 50 12 83 57 114 29 20 44 23 86 19 68 -7 90 -22 117 -79 20
-44 25 -47 60 -48 l38 0 -3 82 -3 83 -55 13 c-69 16 -205 23 -245 13z m80
-566 c50 -54 113 -123 140 -153 28 -30 51 -58 53 -62 2 -4 -10 -17 -25 -28
-58 -41 -99 -55 -164 -58 -113 -5 -196 51 -235 158 -29 80 -3 206 59 280 l22
27 30 -33 c17 -19 71 -78 120 -131z"/>
</g>
</svg>
